<?xml version="1.0" encoding="UTF-8"?>
<!DOCTYPE svg PUBLIC "-//W3C//DTD SVG 1.1//EN" "http://www.w3.org/Graphics/SVG/1.1/DTD/svg11.dtd">
<svg xmlns="http://www.w3.org/2000/svg" version="1.1" width="100px" height="67px" style="shape-rendering:geometricPrecision; text-rendering:geometricPrecision; image-rendering:optimizeQuality; fill-rule:evenodd; clip-rule:evenodd" xmlns:xlink="http://www.w3.org/1999/xlink">
<g><path style="opacity:1" fill="#85d582" d="M 48.5,3.5 C 50.8333,3.5 53.1667,3.5 55.5,3.5C 55.5,4.83333 55.5,6.16667 55.5,7.5C 54.4863,8.67373 53.153,9.3404 51.5,9.5C 50.5294,7.5168 49.5294,5.5168 48.5,3.5 Z"/></g>
<g><path style="opacity:1" fill="#1a5854" d="M 48.5,3.5 C 49.5294,5.5168 50.5294,7.5168 51.5,9.5C 49.7367,8.04622 48.4033,8.37955 47.5,10.5C 46.3473,9.68677 46.3473,8.68677 47.5,7.5C 46.675,6.61432 45.675,6.28099 44.5,6.5C 41.5788,6.38494 38.5788,6.71827 35.5,7.5C 35.719,8.67504 35.3857,9.67504 34.5,10.5C 32.7953,12.3027 30.962,12.9694 29,12.5C 28.502,15.4816 28.3354,18.4816 28.5,21.5C 27.5975,24.3915 27.2641,27.3915 27.5,30.5C 27.1667,30.5 26.8333,30.5 26.5,30.5C 25.2794,31.0283 24.1127,31.695 23,32.5C 22.2828,31.9558 21.7828,31.2891 21.5,30.5C 21.458,28.521 21.458,26.521 21.5,24.5C 22.4963,22.1837 24.1629,20.517 26.5,19.5C 26.0057,17.9745 25.339,16.6412 24.5,15.5C 30.5824,7.7921 38.5824,3.7921 48.5,3.5 Z"/></g>
<g><path style="opacity:1" fill="#1a2a2b" d="M 44.5,7.5 C 44.4431,8.60895 44.1098,9.60895 43.5,10.5C 42.1667,10.5 40.8333,10.5 39.5,10.5C 39.5,9.83333 39.8333,9.5 40.5,9.5C 41.8333,8.83333 43.1667,8.16667 44.5,7.5 Z"/></g>
<g><path style="opacity:1" fill="#47b1ba" d="M 55.5,3.5 C 62.0589,4.44305 67.3923,7.44305 71.5,12.5C 69.1667,12.5 66.8333,12.5 64.5,12.5C 64.5858,11.5041 64.2524,10.6708 63.5,10C 60.7244,9.93429 58.5577,8.76763 57,6.5C 56.6174,7.05596 56.1174,7.38929 55.5,7.5C 55.5,6.16667 55.5,4.83333 55.5,3.5 Z"/></g>
<g><path style="opacity:1" fill="#59859d" d="M 51.5,9.5 C 53.3569,10.7537 55.3569,10.7537 57.5,9.5C 59.1667,10.3333 60.8333,11.1667 62.5,12C 62.6271,16.6977 60.6271,17.5311 56.5,14.5C 54.5231,17.1474 51.8564,18.4807 48.5,18.5C 48.5,17.8333 48.1667,17.5 47.5,17.5C 48.5511,16.7777 49.2178,15.7777 49.5,14.5C 49.2671,12.9382 48.6005,11.6049 47.5,10.5C 48.4033,8.37955 49.7367,8.04622 51.5,9.5 Z"/></g>
<g><path style="opacity:1" fill="#2b4c58" d="M 64.5,12.5 C 65.5,13.5 66.5,14.5 67.5,15.5C 67.5,17.5 67.5,19.5 67.5,21.5C 66.1779,21.67 65.0113,21.3366 64,20.5C 64.3052,18.5568 64.3052,16.5568 64,14.5C 63.7104,16.0441 63.0437,17.3774 62,18.5C 61.6667,18.1667 61.3333,17.8333 61,17.5C 60.2079,19.6437 58.7079,20.977 56.5,21.5C 55.2502,21.5774 54.4169,22.244 54,23.5C 52.955,22.6266 52.1217,21.6266 51.5,20.5C 50.5,19.8333 49.5,19.1667 48.5,18.5C 51.8564,18.4807 54.5231,17.1474 56.5,14.5C 60.6271,17.5311 62.6271,16.6977 62.5,12C 60.8333,11.1667 59.1667,10.3333 57.5,9.5C 55.3569,10.7537 53.3569,10.7537 51.5,9.5C 53.153,9.3404 54.4863,8.67373 55.5,7.5C 56.1174,7.38929 56.6174,7.05596 57,6.5C 58.5577,8.76763 60.7244,9.93429 63.5,10C 64.2524,10.6708 64.5858,11.5041 64.5,12.5 Z"/></g>
<g><path style="opacity:1" fill="#6dd09a" d="M 64.5,12.5 C 66.8333,12.5 69.1667,12.5 71.5,12.5C 73.5869,13.5846 74.9202,15.2512 75.5,17.5C 73.7376,17.3573 72.0709,17.6906 70.5,18.5C 69.5726,16.8872 68.7393,15.2205 68,13.5C 67.5357,14.0944 67.369,14.7611 67.5,15.5C 66.5,14.5 65.5,13.5 64.5,12.5 Z"/></g>
<g><path style="opacity:1" fill="#228c79" d="M 44.5,6.5 C 44.5,6.83333 44.5,7.16667 44.5,7.5C 43.1667,8.16667 41.8333,8.83333 40.5,9.5C 39.3991,8.40168 38.0657,8.23502 36.5,9C 37.8163,10.9776 37.3163,12.4776 35,13.5C 34.2841,17.2915 32.1175,19.9582 28.5,21.5C 28.3354,18.4816 28.502,15.4816 29,12.5C 30.962,12.9694 32.7953,12.3027 34.5,10.5C 35.3857,9.67504 35.719,8.67504 35.5,7.5C 38.5788,6.71827 41.5788,6.38494 44.5,6.5 Z"/></g>
<g><path style="opacity:1" fill="#29a2a9" d="M 67.5,21.5 C 67.5,22.1667 67.5,22.8333 67.5,23.5C 64.6354,23.0548 62.1354,23.7215 60,25.5C 59.3292,24.7476 58.4959,24.4142 57.5,24.5C 57.4431,23.391 57.1098,22.391 56.5,21.5C 58.7079,20.977 60.2079,19.6437 61,17.5C 61.3333,17.8333 61.6667,18.1667 62,18.5C 63.0437,17.3774 63.7104,16.0441 64,14.5C 64.3052,16.5568 64.3052,18.5568 64,20.5C 65.0113,21.3366 66.1779,21.67 67.5,21.5 Z"/></g>
<g><path style="opacity:1" fill="#6dc55c" d="M 75.5,17.5 C 77.2132,18.6354 77.8799,20.302 77.5,22.5C 75.4129,22.0612 73.2463,21.7278 71,21.5C 69.2067,23.26 69.7067,24.26 72.5,24.5C 71.6851,25.8366 70.5185,26.8366 69,27.5C 68.6012,27.2716 68.4346,26.9382 68.5,26.5C 68.4431,25.391 68.1098,24.391 67.5,23.5C 67.5,22.8333 67.5,22.1667 67.5,21.5C 67.5,19.5 67.5,17.5 67.5,15.5C 67.369,14.7611 67.5357,14.0944 68,13.5C 68.7393,15.2205 69.5726,16.8872 70.5,18.5C 72.0709,17.6906 73.7376,17.3573 75.5,17.5 Z"/></g>
<g><path style="opacity:1" fill="#52ae4b" d="M 44.5,6.5 C 45.675,6.28099 46.675,6.61432 47.5,7.5C 46.3473,8.68677 46.3473,9.68677 47.5,10.5C 48.6005,11.6049 49.2671,12.9382 49.5,14.5C 48.8501,14.8039 48.1835,15.1373 47.5,15.5C 47.1667,14.8333 46.8333,14.1667 46.5,13.5C 42.2183,15.9279 38.385,19.5946 35,24.5C 34.6667,24.1667 34.3333,23.8333 34,23.5C 32.6012,24.2266 31.1012,24.7266 29.5,25C 28.0844,26.9151 28.4178,28.4151 30.5,29.5C 31.1667,29.5 31.5,29.8333 31.5,30.5C 30.1667,30.5 28.8333,30.5 27.5,30.5C 27.2641,27.3915 27.5975,24.3915 28.5,21.5C 32.1175,19.9582 34.2841,17.2915 35,13.5C 37.3163,12.4776 37.8163,10.9776 36.5,9C 38.0657,8.23502 39.3991,8.40168 40.5,9.5C 39.8333,9.5 39.5,9.83333 39.5,10.5C 38.6993,12.0418 38.366,13.7085 38.5,15.5C 41.7313,15.4415 44.0646,13.9415 45.5,11C 44.9056,10.5357 44.2389,10.369 43.5,10.5C 44.1098,9.60895 44.4431,8.60895 44.5,7.5C 44.5,7.16667 44.5,6.83333 44.5,6.5 Z"/></g>
<g><path style="opacity:1" fill="#7bd5a0" d="M 39.5,10.5 C 40.8333,10.5 42.1667,10.5 43.5,10.5C 44.2389,10.369 44.9056,10.5357 45.5,11C 44.0646,13.9415 41.7313,15.4415 38.5,15.5C 38.366,13.7085 38.6993,12.0418 39.5,10.5 Z"/></g>
<g><path style="opacity:1" fill="#1e8e84" d="M 47.5,17.5 C 48.1667,17.5 48.5,17.8333 48.5,18.5C 49.5,19.1667 50.5,19.8333 51.5,20.5C 50.7611,20.369 50.0944,20.5357 49.5,21C 50.3366,22.0113 50.67,23.1779 50.5,24.5C 48.3763,23.9688 46.8763,22.6355 46,20.5C 45.6174,21.056 45.1174,21.3893 44.5,21.5C 43.4168,21.5394 42.4168,21.8728 41.5,22.5C 40.479,21.9984 40.3123,21.3317 41,20.5C 42.8705,18.7811 45.0372,17.7811 47.5,17.5 Z"/></g>
<g><path style="opacity:1" fill="#1d3c1b" d="M 77.5,22.5 C 77.0825,23.2216 76.4158,23.7216 75.5,24C 78.1125,25.0712 78.1125,25.9045 75.5,26.5C 74.5,25.8333 73.5,25.1667 72.5,24.5C 69.7067,24.26 69.2067,23.26 71,21.5C 73.2463,21.7278 75.4129,22.0612 77.5,22.5 Z"/></g>
<g><path style="opacity:1" fill="#122726" d="M 49.5,14.5 C 49.2178,15.7777 48.5511,16.7777 47.5,17.5C 45.0372,17.7811 42.8705,18.7811 41,20.5C 40.3123,21.3317 40.479,21.9984 41.5,22.5C 42.4168,21.8728 43.4168,21.5394 44.5,21.5C 42.359,23.5374 41.0256,26.0374 40.5,29C 38.7166,29.2323 37.0499,28.7323 35.5,27.5C 34.0098,29.3761 32.3431,30.0428 30.5,29.5C 28.4178,28.4151 28.0844,26.9151 29.5,25C 31.1012,24.7266 32.6012,24.2266 34,23.5C 34.3333,23.8333 34.6667,24.1667 35,24.5C 38.385,19.5946 42.2183,15.9279 46.5,13.5C 46.8333,14.1667 47.1667,14.8333 47.5,15.5C 48.1835,15.1373 48.8501,14.8039 49.5,14.5 Z"/></g>
<g><path style="opacity:1" fill="#5fc89d" d="M 51.5,20.5 C 52.1217,21.6266 52.955,22.6266 54,23.5C 54.4169,22.244 55.2502,21.5774 56.5,21.5C 57.1098,22.391 57.4431,23.391 57.5,24.5C 55.5,25.1667 53.5,25.8333 51.5,26.5C 51.1667,25.8333 50.8333,25.1667 50.5,24.5C 50.67,23.1779 50.3366,22.0113 49.5,21C 50.0944,20.5357 50.7611,20.369 51.5,20.5 Z"/></g>
<g><path style="opacity:1" fill="#2b8561" d="M 24.5,15.5 C 25.339,16.6412 26.0057,17.9745 26.5,19.5C 24.1629,20.517 22.4963,22.1837 21.5,24.5C 21.458,26.521 21.458,28.521 21.5,30.5C 19.1553,32.357 18.822,34.6904 20.5,37.5C 22.019,40.4928 23.6857,43.4928 25.5,46.5C 25.3764,47.1067 25.0431,47.44 24.5,47.5C 23.7377,45.7376 22.4044,44.7376 20.5,44.5C 17.1923,34.1005 18.5256,24.4338 24.5,15.5 Z"/></g>
<g><path style="opacity:1" fill="#2a5620" d="M 50.5,24.5 C 50.8333,25.1667 51.1667,25.8333 51.5,26.5C 49.6061,27.6011 48.9394,28.9345 49.5,30.5C 47.6921,31.9179 47.0254,33.9179 47.5,36.5C 44.5159,36.2132 43.1826,34.5465 43.5,31.5C 45.6263,30.3148 44.293,30.3148 39.5,31.5C 42.0813,33.9097 41.748,34.5764 38.5,33.5C 38.3491,30.2819 37.5158,29.9485 36,32.5C 34.8904,30.9632 33.3904,30.2965 31.5,30.5C 31.5,29.8333 31.1667,29.5 30.5,29.5C 32.3431,30.0428 34.0098,29.3761 35.5,27.5C 37.0499,28.7323 38.7166,29.2323 40.5,29C 41.0256,26.0374 42.359,23.5374 44.5,21.5C 45.1174,21.3893 45.6174,21.056 46,20.5C 46.8763,22.6355 48.3763,23.9688 50.5,24.5 Z"/></g>
<g><path style="opacity:1" fill="#12313b" d="M 67.5,23.5 C 68.1098,24.391 68.4431,25.391 68.5,26.5C 67.0687,27.7804 66.4021,29.4471 66.5,31.5C 64.9582,30.6993 63.2915,30.366 61.5,30.5C 61.5,32.1667 61.5,33.8333 61.5,35.5C 61.1667,35.5 60.8333,35.5 60.5,35.5C 60.8678,32.9442 60.0345,30.9442 58,29.5C 56.7104,31.354 55.2104,31.6873 53.5,30.5C 52.3835,34.0978 51.0502,34.0978 49.5,30.5C 48.9394,28.9345 49.6061,27.6011 51.5,26.5C 53.5,25.8333 55.5,25.1667 57.5,24.5C 58.4959,24.4142 59.3292,24.7476 60,25.5C 62.1354,23.7215 64.6354,23.0548 67.5,23.5 Z"/></g>
<g><path style="opacity:1" fill="#389e73" d="M 72.5,24.5 C 73.5,25.1667 74.5,25.8333 75.5,26.5C 76.0065,27.8589 77.0065,28.8589 78.5,29.5C 76.6684,30.0568 75.3351,31.0568 74.5,32.5C 72.6776,32.1692 71.0109,31.5025 69.5,30.5C 68.8676,32.7426 67.5342,34.4093 65.5,35.5C 65.8333,34.1667 66.1667,32.8333 66.5,31.5C 66.4021,29.4471 67.0687,27.7804 68.5,26.5C 68.4346,26.9382 68.6012,27.2716 69,27.5C 70.5185,26.8366 71.6851,25.8366 72.5,24.5 Z"/></g>
<g><path style="opacity:1" fill="#90c828" d="M 27.5,30.5 C 28.8333,30.5 30.1667,30.5 31.5,30.5C 33.3904,30.2965 34.8904,30.9632 36,32.5C 37.5158,29.9485 38.3491,30.2819 38.5,33.5C 38.719,34.675 38.3857,35.675 37.5,36.5C 36.6667,35.5 35.8333,34.5 35,33.5C 34.5357,34.0944 34.369,34.7611 34.5,35.5C 34.44,36.0431 34.1067,36.3764 33.5,36.5C 32.8333,35.1667 32.1667,33.8333 31.5,32.5C 30.3554,33.7757 30.3554,35.109 31.5,36.5C 30.1667,37.8333 28.8333,37.8333 27.5,36.5C 28.6225,34.5184 28.6225,32.5184 27.5,30.5 Z"/></g>
<g><path style="opacity:1" fill="#83b21a" d="M 60.5,35.5 C 60.1344,36.6946 59.301,37.3613 58,37.5C 56.0109,36.8798 54.1775,36.5465 52.5,36.5C 51.1667,35.1667 49.8333,35.1667 48.5,36.5C 48.1667,36.5 47.8333,36.5 47.5,36.5C 47.0254,33.9179 47.6921,31.9179 49.5,30.5C 51.0502,34.0978 52.3835,34.0978 53.5,30.5C 55.2104,31.6873 56.7104,31.354 58,29.5C 60.0345,30.9442 60.8678,32.9442 60.5,35.5 Z"/></g>
<g><path style="opacity:1" fill="#081c26" d="M 56.5,32.5 C 58.4646,32.9483 58.7979,33.9483 57.5,35.5C 56.6143,34.675 56.281,33.675 56.5,32.5 Z"/></g>
<g><path style="opacity:1" fill="#8dc01a" d="M 66.5,31.5 C 66.1667,32.8333 65.8333,34.1667 65.5,35.5C 64.2652,35.7214 63.2652,36.3881 62.5,37.5C 61.7025,37.0431 61.3691,36.3764 61.5,35.5C 61.5,33.8333 61.5,32.1667 61.5,30.5C 63.2915,30.366 64.9582,30.6993 66.5,31.5 Z"/></g>
<g><path style="opacity:1" fill="#8dc43e" d="M 21.5,30.5 C 21.7828,31.2891 22.2828,31.9558 23,32.5C 24.1127,31.695 25.2794,31.0283 26.5,30.5C 26.6633,32.8568 26.4966,35.1902 26,37.5C 23.2424,32.6932 21.4091,32.6932 20.5,37.5C 18.822,34.6904 19.1553,32.357 21.5,30.5 Z"/></g>
<g><path style="opacity:0.671" fill="#83c141" d="M 77.5,22.5 C 79.8757,26.3934 80.8757,30.7268 80.5,35.5C 79.8333,35.5 79.1667,35.5 78.5,35.5C 78.5,36.1667 78.5,36.8333 78.5,37.5C 77.1667,37.5 75.8333,37.5 74.5,37.5C 74.5,35.8333 74.5,34.1667 74.5,32.5C 75.3351,31.0568 76.6684,30.0568 78.5,29.5C 77.0065,28.8589 76.0065,27.8589 75.5,26.5C 78.1125,25.9045 78.1125,25.0712 75.5,24C 76.4158,23.7216 77.0825,23.2216 77.5,22.5 Z"/></g>
<g><path style="opacity:1" fill="#09363f" d="M 78.5,35.5 C 76.5354,35.0517 76.2021,34.0517 77.5,32.5C 78.3857,33.325 78.719,34.325 78.5,35.5 Z"/></g>
<g><path style="opacity:1" fill="#7cb018" d="M 69.5,30.5 C 69.5,32.1667 69.5,33.8333 69.5,35.5C 70.9778,35.238 72.3112,35.5713 73.5,36.5C 71.604,37.4656 69.604,37.7989 67.5,37.5C 66.1667,37.5 65.5,36.8333 65.5,35.5C 67.5342,34.4093 68.8676,32.7426 69.5,30.5 Z"/></g>
<g><path style="opacity:1" fill="#33462e" d="M 69.5,30.5 C 71.0109,31.5025 72.6776,32.1692 74.5,32.5C 74.5,34.1667 74.5,35.8333 74.5,37.5C 75.8333,37.5 77.1667,37.5 78.5,37.5C 78.0884,41.6536 77.0884,45.6536 75.5,49.5C 73.5438,54.1571 70.2105,57.4905 65.5,59.5C 66.8333,57.5 68.1667,55.5 69.5,53.5C 70.4959,53.5858 71.3292,53.2524 72,52.5C 74.6509,48.5475 75.6509,44.2141 75,39.5C 71.2277,42.5879 68.7277,41.9213 67.5,37.5C 69.604,37.7989 71.604,37.4656 73.5,36.5C 72.3112,35.5713 70.9778,35.238 69.5,35.5C 69.5,33.8333 69.5,32.1667 69.5,30.5 Z"/></g>
<g><path style="opacity:0.882" fill="#4e8d84" d="M 78.5,35.5 C 79.1667,35.5 79.8333,35.5 80.5,35.5C 80.5674,40.914 78.9008,45.5807 75.5,49.5C 77.0884,45.6536 78.0884,41.6536 78.5,37.5C 78.5,36.8333 78.5,36.1667 78.5,35.5 Z"/></g>
<g><path style="opacity:1" fill="#3d9830" d="M 47.5,36.5 C 47.8333,36.5 48.1667,36.5 48.5,36.5C 46.7264,40.2743 44.0597,42.941 40.5,44.5C 39.5,45.5 38.5,46.5 37.5,47.5C 37.1667,46.5 36.5,45.8333 35.5,45.5C 34.7207,42.0158 34.3874,38.6825 34.5,35.5C 34.369,34.7611 34.5357,34.0944 35,33.5C 35.8333,34.5 36.6667,35.5 37.5,36.5C 38.3857,35.675 38.719,34.675 38.5,33.5C 41.748,34.5764 42.0813,33.9097 39.5,31.5C 44.293,30.3148 45.6263,30.3148 43.5,31.5C 43.1826,34.5465 44.5159,36.2132 47.5,36.5 Z"/></g>
<g><path style="opacity:1" fill="#1e6a28" d="M 52.5,36.5 C 48.992,38.0121 49.3253,39.6788 53.5,41.5C 53.3893,42.1174 53.056,42.6174 52.5,43C 48.3713,43.9665 44.3713,44.4665 40.5,44.5C 44.0597,42.941 46.7264,40.2743 48.5,36.5C 49.8333,35.1667 51.1667,35.1667 52.5,36.5 Z"/></g>
<g><path style="opacity:1" fill="#0d0e14" d="M 60.5,35.5 C 60.8333,35.5 61.1667,35.5 61.5,35.5C 61.3691,36.3764 61.7025,37.0431 62.5,37.5C 63.2652,36.3881 64.2652,35.7214 65.5,35.5C 65.5,36.8333 66.1667,37.5 67.5,37.5C 68.7277,41.9213 71.2277,42.5879 75,39.5C 75.6509,44.2141 74.6509,48.5475 72,52.5C 71.3292,53.2524 70.4959,53.5858 69.5,53.5C 68.8141,52.1516 67.8141,50.985 66.5,50C 67.6734,46.8897 67.1734,46.723 65,49.5C 63.2949,48.2367 61.6282,47.9034 60,48.5C 59.5172,47.552 59.3505,46.552 59.5,45.5C 58.267,43.2036 56.267,41.8702 53.5,41.5C 49.3253,39.6788 48.992,38.0121 52.5,36.5C 54.1775,36.5465 56.0109,36.8798 58,37.5C 59.301,37.3613 60.1344,36.6946 60.5,35.5 Z"/></g>
<g><path style="opacity:1" fill="#14533b" d="M 53.5,41.5 C 56.267,41.8702 58.267,43.2036 59.5,45.5C 58.8333,45.5 58.5,45.8333 58.5,46.5C 55.5118,44.727 52.1785,44.0604 48.5,44.5C 47.8333,46.5 47.1667,48.5 46.5,50.5C 45.448,50.3505 44.448,50.5172 43.5,51C 44.0611,52.676 45.0611,54.0094 46.5,55C 45.8333,55.3333 45.1667,55.6667 44.5,56C 46.4645,56.624 48.1311,56.124 49.5,54.5C 50.1067,54.6236 50.44,54.9569 50.5,55.5C 48.7558,57.8874 46.4225,59.554 43.5,60.5C 42.5481,58.9547 42.2148,57.288 42.5,55.5C 42.389,51.9359 40.7223,49.6026 37.5,48.5C 37.5,48.1667 37.5,47.8333 37.5,47.5C 38.5,46.5 39.5,45.5 40.5,44.5C 44.3713,44.4665 48.3713,43.9665 52.5,43C 53.056,42.6174 53.3893,42.1174 53.5,41.5 Z"/></g>
<g><path style="opacity:0.961" fill="#206776" d="M 20.5,44.5 C 22.4044,44.7376 23.7377,45.7376 24.5,47.5C 26.268,51.4828 27.9346,51.8162 29.5,48.5C 30.325,47.6143 31.325,47.281 32.5,47.5C 32.3505,46.448 32.5172,45.448 33,44.5C 33.6708,45.2524 34.5041,45.5858 35.5,45.5C 36.5,45.8333 37.1667,46.5 37.5,47.5C 37.5,47.8333 37.5,48.1667 37.5,48.5C 35.8267,49.343 34.66,50.6763 34,52.5C 32.7318,52.3842 31.3985,52.0509 30,51.5C 28.513,52.2529 28.3463,53.0862 29.5,54C 28.9056,54.4643 28.2389,54.631 27.5,54.5C 24.1948,51.9045 21.8615,48.5712 20.5,44.5 Z"/></g>
<g><path style="opacity:1" fill="#1f3642" d="M 26.5,30.5 C 26.8333,30.5 27.1667,30.5 27.5,30.5C 28.6225,32.5184 28.6225,34.5184 27.5,36.5C 28.8333,37.8333 30.1667,37.8333 31.5,36.5C 30.3554,35.109 30.3554,33.7757 31.5,32.5C 32.1667,33.8333 32.8333,35.1667 33.5,36.5C 34.1067,36.3764 34.44,36.0431 34.5,35.5C 34.3874,38.6825 34.7207,42.0158 35.5,45.5C 34.5041,45.5858 33.6708,45.2524 33,44.5C 32.5172,45.448 32.3505,46.448 32.5,47.5C 31.325,47.281 30.325,47.6143 29.5,48.5C 27.9346,51.8162 26.268,51.4828 24.5,47.5C 25.0431,47.44 25.3764,47.1067 25.5,46.5C 23.6857,43.4928 22.019,40.4928 20.5,37.5C 21.4091,32.6932 23.2424,32.6932 26,37.5C 26.4966,35.1902 26.6633,32.8568 26.5,30.5 Z"/></g>
<g><path style="opacity:1" fill="#0a3130" d="M 58.5,46.5 C 57.7659,47.7079 57.4326,49.0413 57.5,50.5C 54.8883,51.7787 52.5549,53.4453 50.5,55.5C 50.44,54.9569 50.1067,54.6236 49.5,54.5C 48.1311,56.124 46.4645,56.624 44.5,56C 45.1667,55.6667 45.8333,55.3333 46.5,55C 45.0611,54.0094 44.0611,52.676 43.5,51C 44.448,50.5172 45.448,50.3505 46.5,50.5C 47.1667,48.5 47.8333,46.5 48.5,44.5C 52.1785,44.0604 55.5118,44.727 58.5,46.5 Z"/></g>
<g><path style="opacity:0.949" fill="#030606" d="M 57.5,50.5 C 57.1523,53.0193 55.8189,54.8526 53.5,56C 54.5,56.3333 55.5,56.6667 56.5,57C 51.9331,61.877 52.5997,63.2103 58.5,61C 59.3333,60.1667 60.1667,59.3333 61,58.5C 60.8915,59.7688 61.0582,60.7688 61.5,61.5C 60.7375,62.2679 59.7375,62.7679 58.5,63C 52.1667,63.6667 45.8333,63.6667 39.5,63C 38.2625,62.7679 37.2625,62.2679 36.5,61.5C 36.5394,60.4168 36.8728,59.4168 37.5,58.5C 39.3964,57.7255 41.063,56.7255 42.5,55.5C 42.2148,57.288 42.5481,58.9547 43.5,60.5C 46.4225,59.554 48.7558,57.8874 50.5,55.5C 52.5549,53.4453 54.8883,51.7787 57.5,50.5 Z"/></g>
<g><path style="opacity:1" fill="#07090c" d="M 59.5,45.5 C 59.3505,46.552 59.5172,47.552 60,48.5C 61.6282,47.9034 63.2949,48.2367 65,49.5C 67.1734,46.723 67.6734,46.8897 66.5,50C 67.8141,50.985 68.8141,52.1516 69.5,53.5C 68.1667,55.5 66.8333,57.5 65.5,59.5C 64.4863,60.6737 63.153,61.3404 61.5,61.5C 61.0582,60.7688 60.8915,59.7688 61,58.5C 60.1667,59.3333 59.3333,60.1667 58.5,61C 52.5997,63.2103 51.9331,61.877 56.5,57C 55.5,56.6667 54.5,56.3333 53.5,56C 55.8189,54.8526 57.1523,53.0193 57.5,50.5C 57.4326,49.0413 57.7659,47.7079 58.5,46.5C 58.5,45.8333 58.8333,45.5 59.5,45.5 Z"/></g>
<g><path style="opacity:1" fill="#0d232c" d="M 37.5,48.5 C 40.7223,49.6026 42.389,51.9359 42.5,55.5C 41.063,56.7255 39.3964,57.7255 37.5,58.5C 36.8728,59.4168 36.5394,60.4168 36.5,61.5C 32.6172,60.2819 29.6172,57.9485 27.5,54.5C 28.2389,54.631 28.9056,54.4643 29.5,54C 28.3463,53.0862 28.513,52.2529 30,51.5C 31.3985,52.0509 32.7318,52.3842 34,52.5C 34.66,50.6763 35.8267,49.343 37.5,48.5 Z"/></g>
</svg>
